<?xml version="1.0" encoding="utf-8"?>
<!-- Generator: Adobe Illustrator 22.0.1, SVG Export Plug-In . SVG Version: 6.00 Build 0)  -->
<svg width="113px" height="25px" version="1.1" id="Layer_1" xmlns="http://www.w3.org/2000/svg" xmlns:xlink="http://www.w3.org/1999/xlink" x="0px" y="0px"
	 viewBox="0 0 113.5 25.5" style="enable-background:new 0 0 113.5 25.5;" xml:space="preserve">
<style type="text/css">
	.st0{fill:#786DFF;}
	.st1{fill:#010101;}
</style>
<path class="st0" d="M19.2,2.3l-2.8,2.8c-0.2,0.2-0.5,0-0.5,0l-3.6-3.7c-1.2-1.2-3-1.2-4.2,0l0,0c-1.2,1.2-1.2,3,0,4.2l6,6
	c1.2,1.2,3,1.2,4.2,0l5-5l0.9-0.9c0.6-0.6,1.6-0.6,2.2,0c0,0,0,0,0,0c0.6,0.6,0.6,1.5,0,2.1c0,0,0,0,0,0l-0.9,0.9l-9,9.1
	c-0.1,0.2-0.4,0.2-0.5,0c0,0,0,0,0,0L5.9,7.9c-1.2-1.2-3-1.2-4.2,0l0,0c-1.2,1.2-1.2,3,0,4.2L14,24.4l-0.1-0.1c1.2,1.2,3,1.2,4.2,0
	l11.4-11.4l0.1-0.1c2.9-2.9,3-7.6,0.2-10.5c-2.9-2.9-7.6-3-10.5-0.2C19.3,2.1,19.2,2.2,19.2,2.3L19.2,2.3z"/>
<path class="st1" d="M47.9,20.2h-6.6V9.7c0-0.2-0.2-0.4-0.5-0.4c-0.2,0-0.4,0.2-0.4,0.4v10.9c0,0.2,0.2,0.4,0.4,0.4h7
	c0.2,0,0.4-0.2,0.4-0.4S48.1,20.2,47.9,20.2L47.9,20.2L47.9,20.2z"/>
<path class="st1" d="M57.2,9.6c-0.1-0.3-0.3-0.4-0.6-0.4h0c-0.3,0-0.5,0.2-0.6,0.4l-5,10.9c0,0.1-0.1,0.2-0.1,0.3
	c0,0.2,0.2,0.4,0.4,0.4c0.2,0,0.4-0.1,0.4-0.3l1.4-3H60l1.4,3c0.1,0.2,0.2,0.3,0.4,0.3c0.2,0,0.4-0.2,0.4-0.4c0,0,0,0,0,0
	c0-0.1,0-0.2-0.1-0.3L57.2,9.6z M53.5,17l3.1-6.8l3.1,6.8H53.5z"/>
<path class="st1" d="M72.9,9.2c-0.2,0-0.3,0.1-0.4,0.3l-4.3,6.1L64,9.5c-0.1-0.1-0.2-0.2-0.4-0.3c-0.2,0-0.4,0.2-0.5,0.4
	c0,0.1,0,0.2,0.1,0.3l4.6,6.5v4.3c0,0.2,0.2,0.4,0.5,0.4c0.2,0,0.4-0.2,0.4-0.4v-4.3l4.5-6.4c0.1-0.1,0.1-0.2,0.1-0.3
	C73.3,9.4,73.1,9.3,72.9,9.2z"/>
<path class="st1" d="M84.2,14.9c0.8-0.5,1.5-1.2,1.5-2.5v0c0-0.7-0.3-1.5-0.8-2c-0.7-0.7-1.7-1-3.1-1h-4.2c-0.7,0-1.3,0.6-1.3,1.3
	c0,0,0,0,0,0v9.1c0,0.7,0.6,1.3,1.3,1.3c0,0,0,0,0,0H82c2.6,0,4.4-1.1,4.4-3.2v0C86.4,16.2,85.6,15.4,84.2,14.9z M78.9,11.6h2.5
	c1.1,0,1.7,0.4,1.7,1.2v0c0,0.9-0.7,1.2-1.9,1.2h-2.4V11.6z M83.8,17.5c0,0.9-0.7,1.3-1.8,1.3h-3.1v-2.6h3
	C83.3,16.2,83.8,16.7,83.8,17.5L83.8,17.5z"/>
<path class="st1" d="M98.1,9.2c-0.7,0-1.3,0.6-1.3,1.3c0,0,0,0,0,0V16c0,1.9-1,2.8-2.5,2.8s-2.5-1-2.5-2.9v-5.4
	c0-0.7-0.6-1.3-1.3-1.2c-0.7,0-1.2,0.6-1.2,1.2V16c0,3.5,1.9,5.2,5.1,5.2s5.1-1.7,5.1-5.3v-5.4C99.4,9.8,98.9,9.2,98.1,9.2
	C98.1,9.2,98.1,9.2,98.1,9.2z"/>
<path class="st1" d="M111.4,9.2c-0.5,0-0.9,0.3-1.2,0.8l-2.9,4.1l-2.8-4.1c-0.3-0.5-0.7-0.8-1.3-0.8c-0.7,0-1.3,0.5-1.3,1.2
	c0,0,0,0,0,0c0,0.3,0.1,0.7,0.3,0.9l3.8,5.1v3.3c0,0.7,0.6,1.3,1.3,1.3s1.3-0.6,1.3-1.3v-3.4l3.8-5.1c0.2-0.3,0.3-0.6,0.3-0.9
	c0-0.7-0.5-1.2-1.1-1.3C111.5,9.2,111.4,9.2,111.4,9.2z"/>
</svg>
